<?xml version="1.0" encoding="UTF-8" standalone="no"?>
<!-- Created with Inkscape (http://www.inkscape.org/) -->

<svg
   width="272.28735mm"
   height="272.28738mm"
   viewBox="0 0 272.28735 272.28738"
   version="1.1"
   id="svg1"
   xml:space="preserve"
   xmlns="http://www.w3.org/2000/svg"
   xmlns:svg="http://www.w3.org/2000/svg"><defs
     id="defs1" /><g
     id="layer1"
     transform="translate(28.150395,-10.028215)"><g
       style="fill:none"
       id="g1"
       transform="matrix(0.26458333,0,0,0.26458333,102.45159,145.85417)"><path
         clip-rule="evenodd"
         d="m 20.944968,515.75963 c 284.184392,0 514.558802,-230.37441 514.558802,-514.5587967 0,-284.1831033 -230.37441,-514.5587833 -514.558802,-514.5587833 -284.183108,0 -514.558778,230.37568 -514.558778,514.5587833 0,284.1843867 230.37567,514.5587967 514.558778,514.5587967 z m 64.31985,-707.51835 c 0,-35.52256 -28.79601,-64.31984 -64.31985,-64.31984 -35.52257,0 -64.31985,28.79728 -64.31985,64.31984 V -63.119017 H -172.01459 c -35.52255,0 -64.31983,28.79663 -64.31983,64.3198503 0,35.5238397 28.79728,64.3198597 64.31983,64.3198597 H -43.374882 V 194.16036 c 0,35.52387 28.79728,64.31985 64.31985,64.31985 35.52384,0 64.31985,-28.79598 64.31985,-64.31985 V 65.520693 H 213.90449 c 35.52388,0 64.31986,-28.79602 64.31986,-64.3198597 0,-35.5225703 -28.79598,-64.3198503 -64.31986,-64.3198503 H 85.264818 Z"
         fill="#4a5568"
         fill-rule="evenodd"
         id="path1"
         style="fill:#ffffff;fill-opacity:1;stroke-width:64.3199" /></g></g></svg>
