<?xml version="1.0" encoding="UTF-8" standalone="no"?>
<!-- Created with Inkscape (http://www.inkscape.org/) -->

<svg
   width="48.067245mm"
   height="139.83199mm"
   viewBox="0 0 48.067245 139.83199"
   version="1.1"
   id="svg1"
   xml:space="preserve"
   xmlns:inkscape="http://www.inkscape.org/namespaces/inkscape"
   xmlns:sodipodi="http://sodipodi.sourceforge.net/DTD/sodipodi-0.dtd"
   xmlns="http://www.w3.org/2000/svg"
   xmlns:svg="http://www.w3.org/2000/svg"><sodipodi:namedview
     id="namedview1"
     pagecolor="#505050"
     bordercolor="#eeeeee"
     borderopacity="1"
     inkscape:showpageshadow="0"
     inkscape:pageopacity="0"
     inkscape:pagecheckerboard="0"
     inkscape:deskcolor="#505050"
     inkscape:document-units="mm" /><defs
     id="defs1" /><g
     inkscape:label="Layer 1"
     inkscape:groupmode="layer"
     id="layer1"
     transform="translate(-83.136827,-77.877691)"><g
       id="g1"
       transform="matrix(2.1848748,0,0,2.1848748,28.514958,69.138193)"><path
         d="m 39,30 5,-5 V 22 H 28 v 3 l 5,5 z"
         fill="#9b9b9a"
         id="path1" /><path
         d="m 33,20 h 6 v 10 h -6 z"
         fill="#d0cfce"
         id="path2" /><path
         d="m 39,30 7,8 V 57 A 10,10 0 0 1 26,57 V 38 l 7,-8 z"
         fill="#9b9b9a"
         id="path3" /><path
         d="M 36,67 A 10,10 0 0 1 26,57 V 38 l 7,-8 h 6 l 3,8 v 19 c 0,5.5228 -2.6863,10 -6,10"
         fill="#d0cfce"
         id="path4" /><g
         stroke="#000000"
         stroke-linecap="round"
         stroke-linejoin="round"
         id="g16"><path
           d="M 46,57 A 10,10 0 0 1 26,57"
           fill="none"
           stroke-width="2"
           id="path5" /><path
           d="M 46,57 V 38 H 26 v 19"
           fill="none"
           stroke-width="2"
           id="path6" /><path
           d="m 33,20 h 6 v 10 h -6 z"
           fill="none"
           stroke-width="2"
           id="path7" /><path
           d="m 26,38 7,-8 -5,-5 v -3 h 4.972"
           fill="none"
           stroke-width="2"
           id="path8" /><path
           d="m 46,38 -7,-8 5,-5 v -3 h -4.73"
           fill="none"
           stroke-width="2"
           id="path9" /><path
           d="M 36,15 V 5"
           fill="none"
           stroke-width="2"
           id="path10" /><path
           d="M 30,7 V 18"
           fill="none"
           stroke-width="2"
           id="path11" /><path
           d="M 42,7 V 18"
           fill="none"
           stroke-width="2"
           id="path12" /><path
           d="m 37.0062,51.8749 a 0.76,0.76 0 1 1 -0.38,-0.6583 0.76,0.76 0 0 1 0.38,0.6583 z"
           id="path13" /><path
           d="m 33.2062,51.8749 a 3.0387,3.0387 0 0 1 1.52,-2.6331 l -1.52,-2.6332 a 6.0777,6.0777 0 0 0 -3.04,5.2663 z"
           id="path14" /><path
           d="m 37.7665,54.5081 a 3.0441,3.0441 0 0 1 -3.0405,0 l -1.52,2.6331 a 6.0875,6.0875 0 0 0 6.081,0 z"
           id="path15" /><path
           d="m 37.7665,49.2418 a 3.0386,3.0386 0 0 1 1.52,2.6331 h 3.04 a 6.0776,6.0776 0 0 0 -3.0394,-5.2663 z"
           id="path16" /></g></g></g></svg>
