<?xml version="1.0" encoding="UTF-8" standalone="no"?>
<!-- Created with Inkscape (http://www.inkscape.org/) -->

<svg
   width="144.25237mm"
   height="144.25238mm"
   viewBox="0 0 144.25237 144.25238"
   version="1.1"
   id="svg1"
   xml:space="preserve"
   xmlns:inkscape="http://www.inkscape.org/namespaces/inkscape"
   xmlns:sodipodi="http://sodipodi.sourceforge.net/DTD/sodipodi-0.dtd"
   xmlns="http://www.w3.org/2000/svg"
   xmlns:svg="http://www.w3.org/2000/svg"><sodipodi:namedview
     id="namedview1"
     pagecolor="#505050"
     bordercolor="#eeeeee"
     borderopacity="1"
     inkscape:showpageshadow="0"
     inkscape:pageopacity="0"
     inkscape:pagecheckerboard="0"
     inkscape:deskcolor="#505050"
     inkscape:document-units="mm" /><defs
     id="defs1" /><g
     inkscape:label="Layer 1"
     inkscape:groupmode="layer"
     id="layer1"
     transform="translate(-36.068459,-58.702132)"><g
       style="fill:#ffffff;fill-opacity:1"
       id="g2"
       transform="matrix(9.0157731,0,0,9.0157731,9.0211402,31.654811)"><g
         fill="#212121"
         id="g5"
         style="fill:#ffffff;fill-opacity:1"><path
           d="m 8.85355,6.14645 c 0.19527,0.19526 0.19527,0.51184 0,0.7071 l -2,2 c -0.19526,0.19527 -0.51184,0.19527 -0.7071,0 l -1,-1 c -0.19527,-0.19526 -0.19527,-0.51184 0,-0.7071 0.19526,-0.19527 0.51184,-0.19527 0.7071,0 L 6.5,7.79289 8.14645,6.14645 c 0.19526,-0.19527 0.51184,-0.19527 0.7071,0 z"
           id="path1"
           style="fill:#ffffff;fill-opacity:1" /><path
           d="m 8.85355,11.1464 c 0.19527,0.1953 0.19527,0.5119 0,0.7072 l -2,2 c -0.19526,0.1952 -0.51184,0.1952 -0.7071,0 l -1,-1 c -0.19527,-0.1953 -0.19527,-0.5119 0,-0.7072 0.19526,-0.1952 0.51184,-0.1952 0.7071,0 L 6.5,12.7929 8.14645,11.1464 c 0.19526,-0.1952 0.51184,-0.1952 0.7071,0 z"
           id="path2"
           style="fill:#ffffff;fill-opacity:1" /><path
           d="M 10,7.5 C 10,7.22386 10.2239,7 10.5,7 h 3 C 13.7761,7 14,7.22386 14,7.5 14,7.77614 13.7761,8 13.5,8 h -3 C 10.2239,8 10,7.77614 10,7.5 Z"
           id="path3"
           style="fill:#ffffff;fill-opacity:1" /><path
           d="M 5.5,3 C 4.11929,3 3,4.11929 3,5.5 v 9 C 3,15.8807 4.11929,17 5.5,17 H 9.59971 C 9.43777,16.6832 9.30564,16.3486 9.20703,16 H 5.5 C 4.67157,16 4,15.3284 4,14.5 v -9 C 4,4.67157 4.67157,4 5.5,4 h 9 C 15.3284,4 16,4.67157 16,5.5 v 3.70703 c 0.3486,0.09861 0.6832,0.23074 1,0.39268 V 5.5 C 17,4.11929 15.8807,3 14.5,3 Z"
           id="path4"
           style="fill:#ffffff;fill-opacity:1" /><path
           d="M 14.5,19 C 16.9853,19 19,16.9853 19,14.5 19,12.0147 16.9853,10 14.5,10 12.0147,10 10,12.0147 10,14.5 c 0,2.4853 2.0147,4.5 4.5,4.5 z m 0,-7 c 0.2761,0 0.5,0.2239 0.5,0.5 V 14 h 1.5 c 0.2761,0 0.5,0.2239 0.5,0.5 0,0.2761 -0.2239,0.5 -0.5,0.5 H 15 v 1.5 C 15,16.7761 14.7761,17 14.5,17 14.2239,17 14,16.7761 14,16.5 V 15 H 12.5 C 12.2239,15 12,14.7761 12,14.5 12,14.2239 12.2239,14 12.5,14 H 14 V 12.5 C 14,12.2239 14.2239,12 14.5,12 Z"
           id="path5"
           style="fill:#ffffff;fill-opacity:1" /></g></g></g></svg>
