<?xml version="1.0" encoding="UTF-8" standalone="no"?>
<!-- Created with Inkscape (http://www.inkscape.org/) -->

<svg
   width="89.133171mm"
   height="116.69891mm"
   viewBox="0 0 89.133171 116.69891"
   version="1.1"
   id="svg1"
   xmlns:inkscape="http://www.inkscape.org/namespaces/inkscape"
   xmlns:sodipodi="http://sodipodi.sourceforge.net/DTD/sodipodi-0.dtd"
   xmlns="http://www.w3.org/2000/svg"
   xmlns:svg="http://www.w3.org/2000/svg">
  <sodipodi:namedview
     id="namedview1"
     pagecolor="#505050"
     bordercolor="#eeeeee"
     borderopacity="1"
     inkscape:showpageshadow="0"
     inkscape:pageopacity="0"
     inkscape:pagecheckerboard="0"
     inkscape:deskcolor="#505050"
     inkscape:document-units="mm" />
  <defs
     id="defs1" />
  <g
     inkscape:label="Layer 1"
     inkscape:groupmode="layer"
     id="layer1"
     transform="translate(-64.597734,-82.97225)">
    <path
       id="rect1"
       style="fill:#ffffff;fill-opacity:1;stroke:none;stroke-width:2.31348;stroke-miterlimit:26.2;stroke-dasharray:none;stroke-opacity:1"
       d="m 135.10843,82.972252 -68.161644,94.263488 -0.02413,-0.0163 c -0.002,0.0193 -0.004,0.0386 -0.0059,0.058 l -0.0147,0.0203 0.01153,0.008 c -0.767308,7.44576 -1.534577,14.89148 -2.301878,22.33722 l -0.01397,0.0193 c 0.0042,-0.001 0.0092,-0.004 0.01327,-0.005 -1.01e-4,0.005 -5.83e-4,0.01 -6.85e-4,0.0139 l 0.01396,-0.0193 c 6.962984,-3.2448 13.925985,-6.48956 20.888982,-9.73438 l 0.01115,0.007 0.014,-0.0193 c 0.01847,-0.008 0.03706,-0.0173 0.05552,-0.0259 l -0.02466,-0.0167 68.161635,-94.263496 z" />
  </g>
</svg>
