<?xml version="1.0" encoding="UTF-8" standalone="no"?>
<!-- Created with Inkscape (http://www.inkscape.org/) -->

<svg
   width="118.40284mm"
   height="79.375mm"
   viewBox="0 0 118.40284 79.375"
   version="1.1"
   id="svg1"
   xml:space="preserve"
   xmlns:inkscape="http://www.inkscape.org/namespaces/inkscape"
   xmlns:sodipodi="http://sodipodi.sourceforge.net/DTD/sodipodi-0.dtd"
   xmlns="http://www.w3.org/2000/svg"
   xmlns:svg="http://www.w3.org/2000/svg"><sodipodi:namedview
     id="namedview1"
     pagecolor="#505050"
     bordercolor="#eeeeee"
     borderopacity="1"
     inkscape:showpageshadow="0"
     inkscape:pageopacity="0"
     inkscape:pagecheckerboard="0"
     inkscape:deskcolor="#505050"
     inkscape:document-units="mm"
     inkscape:export-bgcolor="#ffffff00" /><defs
     id="defs1" /><g
     inkscape:label="Layer 1"
     inkscape:groupmode="layer"
     id="layer1"
     transform="translate(-53.994809,-107.69175)"><g
       style="fill:#ffffff;fill-opacity:1"
       id="g1"
       transform="matrix(8.8194444,0,0,8.8194444,-0.85597431,42.666667)"><path
         fill-rule="evenodd"
         clip-rule="evenodd"
         d="m 6.2193018,8.3729223 c 0,-0.55228 0.3339295,-1 0.7458446,-1 H 18.89866 c 0.41193,0 0.745845,0.44772 0.745845,1 0,0.5522798 -0.333915,0.9999998 -0.745845,0.9999998 H 6.9651464 c -0.4119151,0 -0.7458446,-0.44772 -0.7458446,-0.9999998 z m 2.2375338,3.4999997 c 0,-0.5523 0.3339295,-1 0.7458446,-1 h 7.4584458 c 0.41193,0 0.745845,0.4477 0.745845,1 0,0.5523 -0.333915,1 -0.745845,1 H 9.2026802 c -0.4119151,0 -0.7458446,-0.4477 -0.7458446,-1 z m 2.2375334,3.5 c 0,-0.5523 0.33393,-1 0.745845,-1 h 2.983379 c 0.41193,0 0.745844,0.4477 0.745844,1 0,0.5523 -0.333914,1 -0.745844,1 h -2.983379 c -0.411915,0 -0.745845,-0.4477 -0.745845,-1 z"
         fill="#000000"
         id="path1"
         style="fill:#364031;fill-opacity:1;stroke-width:0.863623"
         sodipodi:nodetypes="sssssssssssssssssssss"
         inkscape:export-filename="icon_filter.svg"
         inkscape:export-xdpi="48"
         inkscape:export-ydpi="48" /></g></g></svg>
